<?xml version="1.0" encoding="UTF-8"?>
<!DOCTYPE svg PUBLIC "-//W3C//DTD SVG 1.1//EN" "http://www.w3.org/Graphics/SVG/1.1/DTD/svg11.dtd">
<svg xmlns="http://www.w3.org/2000/svg" version="1.1" width="500px" height="500px" style="shape-rendering:geometricPrecision; text-rendering:geometricPrecision; image-rendering:optimizeQuality; fill-rule:evenodd; clip-rule:evenodd" xmlns:xlink="http://www.w3.org/1999/xlink">
<g><path style="opacity:0.99" fill="#627eea" d="M 217.5,-0.5 C 238.833,-0.5 260.167,-0.5 281.5,-0.5C 381.662,16.8332 450.162,72.8332 487,167.5C 492.565,183.951 496.731,200.617 499.5,217.5C 499.5,238.833 499.5,260.167 499.5,281.5C 481.614,382.873 424.614,451.706 328.5,488C 313.001,493.061 297.335,496.894 281.5,499.5C 260.167,499.5 238.833,499.5 217.5,499.5C 117.388,482.225 48.8877,426.225 12,331.5C 6.4353,315.049 2.26863,298.383 -0.5,281.5C -0.5,260.167 -0.5,238.833 -0.5,217.5C 17.3224,116.181 74.3224,47.348 170.5,11C 186.033,6.0874 201.7,2.25407 217.5,-0.5 Z"/></g>
<g><path style="opacity:1" fill="#bfcaf5" d="M 373.5,251.5 C 373.44,252.043 373.107,252.376 372.5,252.5C 334.689,235.76 297.022,218.76 259.5,201.5C 259.158,200.662 258.492,200.328 257.5,200.5C 258.162,154.821 257.495,109.488 255.5,64.5C 255.811,63.5222 256.478,62.8555 257.5,62.5C 296.429,125.361 335.095,188.361 373.5,251.5 Z"/></g>
<g><path style="opacity:1" fill="#fdfefe" d="M 255.5,65.5 C 256.499,110.33 256.832,155.33 256.5,200.5C 218.567,217.385 180.734,234.385 143,251.5C 142.536,250.906 142.369,250.239 142.5,249.5C 179.668,187.824 217.335,126.491 255.5,65.5 Z"/></g>
<g><path style="opacity:1" fill="#dce3fb" d="M 255.5,65.5 C 255.5,65.1667 255.5,64.8333 255.5,64.5C 257.495,109.488 258.162,154.821 257.5,200.5C 257.167,200.5 256.833,200.5 256.5,200.5C 256.832,155.33 256.499,110.33 255.5,65.5 Z"/></g>
<g><path style="opacity:1" fill="#bfcaf5" d="M 256.5,200.5 C 256.832,240.337 256.499,280.004 255.5,319.5C 217.36,297.929 179.36,276.096 141.5,254C 140.084,252.085 140.418,250.585 142.5,249.5C 142.369,250.239 142.536,250.906 143,251.5C 180.734,234.385 218.567,217.385 256.5,200.5 Z"/></g>
<g><path style="opacity:1" fill="#a6b6f3" d="M 256.5,200.5 C 256.833,200.5 257.167,200.5 257.5,200.5C 258.492,200.328 259.158,200.662 259.5,201.5C 257.506,240.819 256.839,280.486 257.5,320.5C 256.508,320.672 255.842,320.338 255.5,319.5C 256.499,280.004 256.832,240.337 256.5,200.5 Z"/></g>
<g><path style="opacity:1" fill="#8197ee" d="M 259.5,201.5 C 297.022,218.76 334.689,235.76 372.5,252.5C 373.107,252.376 373.44,252.043 373.5,251.5C 374.043,251.56 374.376,251.893 374.5,252.5C 335.733,275.39 296.733,298.056 257.5,320.5C 256.839,280.486 257.506,240.819 259.5,201.5 Z"/></g>
<g><path style="opacity:1" fill="#fdfdfe" d="M 256.5,342.5 C 256.831,373.338 256.498,404.005 255.5,434.5C 217.543,381.431 179.21,328.597 140.5,276C 141.908,275.685 143.241,276.018 144.5,277C 181.697,299.097 219.03,320.931 256.5,342.5 Z"/></g>
<g><path style="opacity:1" fill="#bfcaf5" d="M 256.5,435.5 C 257.498,404.671 257.831,373.671 257.5,342.5C 295.609,320.609 333.609,298.442 371.5,276C 372.332,275.312 372.998,275.479 373.5,276.5C 334.779,329.22 296.446,382.22 258.5,435.5C 257.743,436.773 257.077,436.773 256.5,435.5 Z"/></g>
<g><path style="opacity:1" fill="#dbe2fa" d="M 256.5,342.5 C 256.833,342.5 257.167,342.5 257.5,342.5C 257.831,373.671 257.498,404.671 256.5,435.5C 255.833,435.5 255.5,435.167 255.5,434.5C 256.498,404.005 256.831,373.338 256.5,342.5 Z"/></g>
</svg>
