<?xml version="1.0" encoding="UTF-8"?>
<!DOCTYPE svg PUBLIC "-//W3C//DTD SVG 1.1//EN" "http://www.w3.org/Graphics/SVG/1.1/DTD/svg11.dtd">
<svg xmlns="http://www.w3.org/2000/svg" version="1.1" width="500px" height="500px" style="shape-rendering:geometricPrecision; text-rendering:geometricPrecision; image-rendering:optimizeQuality; fill-rule:evenodd; clip-rule:evenodd" xmlns:xlink="http://www.w3.org/1999/xlink">
<g><path style="opacity:0.997" fill="#26a17b" d="M 224.5,-0.5 C 241.167,-0.5 257.833,-0.5 274.5,-0.5C 374.667,13.8479 444.5,67.5146 484,160.5C 491.716,181.358 496.882,202.691 499.5,224.5C 499.5,241.167 499.5,257.833 499.5,274.5C 488.344,358.684 446.677,422.851 374.5,467C 343.166,484.39 309.832,495.224 274.5,499.5C 257.833,499.5 241.167,499.5 224.5,499.5C 124.33,485.148 54.4966,431.481 15,338.5C 7.28448,317.642 2.11781,296.309 -0.5,274.5C -0.5,257.833 -0.5,241.167 -0.5,224.5C 12.6639,129.649 62.3305,61.4827 148.5,20C 173.026,9.70418 198.359,2.87085 224.5,-0.5 Z"/></g>
<g><path style="opacity:1" fill="#c7e7dd" d="M 363.5,121.5 C 363.5,121.833 363.5,122.167 363.5,122.5C 287.167,122.5 210.833,122.5 134.5,122.5C 134.5,140.833 134.5,159.167 134.5,177.5C 162.672,177.169 190.672,177.502 218.5,178.5C 190.167,178.5 161.833,178.5 133.5,178.5C 133.5,159.5 133.5,140.5 133.5,121.5C 210.167,121.5 286.833,121.5 363.5,121.5 Z"/></g>
<g><path style="opacity:1" fill="#fdfefe" d="M 363.5,122.5 C 363.5,140.833 363.5,159.167 363.5,177.5C 335.328,177.169 307.328,177.502 279.5,178.5C 279.5,190.833 279.5,203.167 279.5,215.5C 307.833,216.375 335.833,219.875 363.5,226C 373.218,228.684 382.551,232.35 391.5,237C 401.287,243.17 401.954,250.17 393.5,258C 378.381,265.784 362.381,271.118 345.5,274C 326.272,277.154 306.938,279.32 287.5,280.5C 284.833,280.5 282.167,280.5 279.5,280.5C 279.5,320.167 279.5,359.833 279.5,399.5C 259.167,399.5 238.833,399.5 218.5,399.5C 218.5,359.833 218.5,320.167 218.5,280.5C 216.167,280.5 213.833,280.5 211.5,280.5C 179.447,279.564 148.113,274.398 117.5,265C 110.725,262.534 104.892,258.7 100,253.5C 97.1087,247.103 98.6087,241.936 104.5,238C 111.327,233.587 118.66,230.254 126.5,228C 156.634,219.9 187.301,215.733 218.5,215.5C 218.5,203.167 218.5,190.833 218.5,178.5C 190.672,177.502 162.672,177.169 134.5,177.5C 134.5,159.167 134.5,140.833 134.5,122.5C 210.833,122.5 287.167,122.5 363.5,122.5 Z"/></g>
<g><path style="opacity:1" fill="#a1d6c6" d="M 363.5,121.5 C 364.497,140.326 364.83,159.326 364.5,178.5C 336.167,178.5 307.833,178.5 279.5,178.5C 307.328,177.502 335.328,177.169 363.5,177.5C 363.5,159.167 363.5,140.833 363.5,122.5C 363.5,122.167 363.5,121.833 363.5,121.5 Z"/></g>
<g><path style="opacity:1" fill="#28a17b" d="M 203.5,219.5 C 208.5,219.5 213.5,219.5 218.5,219.5C 218.5,233.5 218.5,247.5 218.5,261.5C 238.867,261.798 259.2,261.465 279.5,260.5C 279.5,246.833 279.5,233.167 279.5,219.5C 306.841,220.459 333.841,223.959 360.5,230C 369.87,231.934 378.037,236.101 385,242.5C 385.706,244.971 385.373,247.305 384,249.5C 380.248,252.629 376.081,255.129 371.5,257C 351.346,263.564 330.68,267.564 309.5,269C 275.536,271.361 241.536,272.028 207.5,271C 180.626,269.799 154.293,265.465 128.5,258C 106.928,248.798 107.262,240.131 129.5,232C 138.682,229.038 148.015,226.705 157.5,225C 172.926,222.708 188.259,220.875 203.5,219.5 Z"/></g>
<g><path style="opacity:1" fill="#4eb293" d="M 211.5,280.5 C 213.833,280.5 216.167,280.5 218.5,280.5C 218.5,320.167 218.5,359.833 218.5,399.5C 217.501,360.337 217.168,321.004 217.5,281.5C 215.265,281.795 213.265,281.461 211.5,280.5 Z"/></g>
<g><path style="opacity:1" fill="#43ad8c" d="M 287.5,280.5 C 285.393,281.468 283.059,281.802 280.5,281.5C 280.832,321.004 280.499,360.337 279.5,399.5C 279.5,359.833 279.5,320.167 279.5,280.5C 282.167,280.5 284.833,280.5 287.5,280.5 Z"/></g>
</svg>
